<svg width="16" height="16" viewBox="0 0 16 16" fill="none" xmlns="http://www.w3.org/2000/svg">
<path fill-rule="evenodd" clip-rule="evenodd" d="M6.66667 2.00002C6.48986 2.00002 6.32029 2.07026 6.19526 2.19528C6.07024 2.32031 6 2.48988 6 2.66669V3.33335L10 3.33335V2.66669C10 2.48988 9.92976 2.32031 9.80474 2.19528C9.67972 2.07026 9.51015 2.00002 9.33334 2.00002H6.66667ZM11.3333 3.33335V2.66669C11.3333 2.13625 11.1226 1.62755 10.7475 1.25247C10.3725 0.877401 9.86377 0.666687 9.33334 0.666687H6.66667C6.13624 0.666687 5.62753 0.877401 5.25246 1.25247C4.87738 1.62755 4.66667 2.13625 4.66667 2.66669V3.33335H2C1.63181 3.33335 1.33334 3.63183 1.33334 4.00002C1.33334 4.36821 1.63181 4.66669 2 4.66669H2.66667L2.66667 13.3334C2.66667 13.8638 2.87738 14.3725 3.25246 14.7476C3.62753 15.1226 4.13624 15.3334 4.66667 15.3334H11.3333C11.8638 15.3334 12.3725 15.1226 12.7475 14.7476C13.1226 14.3725 13.3333 13.8638 13.3333 13.3334V4.66669H14C14.3682 4.66669 14.6667 4.36821 14.6667 4.00002C14.6667 3.63183 14.3682 3.33335 14 3.33335H12.6672C12.667 3.33335 12.6673 3.33335 12.6672 3.33335L11.3333 3.33335ZM12 4.66669H4V13.3334C4 13.5102 4.07024 13.6797 4.19526 13.8048C4.32029 13.9298 4.48986 14 4.66667 14H11.3333C11.5101 14 11.6797 13.9298 11.8047 13.8048C11.9298 13.6797 12 13.5102 12 13.3334V4.66669ZM6.66667 6.66669C7.03486 6.66669 7.33334 6.96516 7.33334 7.33335V11.3334C7.33334 11.7015 7.03486 12 6.66667 12C6.29848 12 6 11.7015 6 11.3334V7.33335C6 6.96516 6.29848 6.66669 6.66667 6.66669ZM8.66667 7.33335C8.66667 6.96516 8.96515 6.66669 9.33334 6.66669C9.70152 6.66669 10 6.96516 10 7.33335V11.3334C10 11.7015 9.70152 12 9.33334 12C8.96515 12 8.66667 11.7015 8.66667 11.3334V7.33335Z" fill="#272937" fill-opacity="0.5"/>
</svg>
